# xmcd
#
# Track frame offsets:
#	150
#	19752
#	40488
#	61813
#	87460
#	108675
#	128697
#	147509
#	166289
#	180375
#	199946
#	218107
#	228656
#	246391
#	261002
#	280879
#	299928
#	325907
#
# Disc length: 4609 seconds
#
# Revision: 0
# Processed by: cddbd v1.5.2PL0 Copyright (c) Steve Scherf et al.
# Submitted via: audiograbber 1.83.01
#
DISCID=1f11ff12
DTITLE=Best Of Rock - Rebel Rock
DYEAR=1900
DGENRE=Rock
TTITLE0=Garbage - Stupid Girl
TTITLE1=The Pretenders - Room Full Of Mirrors
TTITLE2=Sisters Of Mercy - More
TTITLE3=Billy Idol - World's Forgotten Boys
TTITLE4=The Alarm - The Rock
TTITLE5=The Bates - Billie Jean
TTITLE6=Republica - Ready To Go
TTITLE7=Duran Duran - Is There Something I Should Know
TTITLE8=Manic Street Preachers - Found That Soul
TTITLE9=Suede - We Are The Pigs
TTITLE10=Oasis - Roll With It
TTITLE11=The Smiths - Panic
TTITLE12=Echo And The Bunnymen - Bring On The Dancing Horses
TTITLE13=Inxs - Kick
TTITLE14=Killing Joke - Love Like Blood
TTITLE15=XTC - Making Plans For Nigel
TTITLE16=Steve Stevens - Crackdown
TTITLE17=Living Colour - I Want To Know
EXTD=
EXTT0=
EXTT1=
EXTT2=
EXTT3=
EXTT4=
EXTT5=
EXTT6=
EXTT7=
EXTT8=
EXTT9=
EXTT10=
EXTT11=
EXTT12=
EXTT13=
EXTT14=
EXTT15=
EXTT16=
EXTT17=
PLAYORDER=
